<?xml version="1.0" standalone="no"?>
<!DOCTYPE svg PUBLIC "-//W3C//DTD SVG 20010904//EN"
 "http://www.w3.org/TR/2001/REC-SVG-20010904/DTD/svg10.dtd">
<svg version="1.0" xmlns="http://www.w3.org/2000/svg"
 width="200.000000pt" height="200.000000pt" viewBox="0 0 200.000000 200.000000"
 preserveAspectRatio="xMidYMid meet">
<metadata>
Created by potrace 1.11, written by Peter Selinger 2001-2013
</metadata>
<g transform="translate(0.000000,200.000000) scale(0.100000,-0.100000)"
fill="#000000" stroke="none">
<path d="M934 1598 c3 -34 6 -69 6 -79 0 -11 5 -19 10 -19 6 0 10 30 10 69 0
51 4 70 15 74 21 9 27 -6 33 -79 7 -91 23 -80 20 14 l-3 77 -49 2 -49 2 7 -61z"/>
<path d="M1109 1580 c-11 -61 -10 -73 2 -81 8 -5 22 -7 32 -5 14 3 17 -1 15
-17 -2 -18 -8 -21 -37 -19 -22 3 -31 0 -27 -7 4 -6 25 -11 46 -11 l39 0 11 58
c6 31 15 76 19 100 5 23 8 42 7 43 0 0 -22 3 -47 6 l-47 5 -13 -72z m78 28
c-3 -13 -9 -40 -12 -60 -6 -32 -11 -38 -32 -38 -18 0 -23 4 -19 18 2 9 8 36
11 60 6 37 10 42 32 42 21 0 24 -4 20 -22z"/>
<path d="M775 1633 c-35 -9 -37 -19 -15 -93 l22 -72 35 5 c54 9 59 19 44 79
-23 89 -29 95 -86 81z m58 -70 c16 -60 12 -77 -19 -71 -12 2 -22 19 -31 53
-17 68 -16 75 10 75 20 0 26 -8 40 -57z"/>
<path d="M612 1511 l53 -98 32 15 c30 15 49 41 21 29 -7 -3 -20 -8 -28 -11
-11 -4 -26 16 -58 79 -25 48 -50 85 -58 85 -11 0 1 -30 38 -99z"/>
<path d="M1279 1543 c-33 -75 -30 -87 28 -99 25 -5 34 -3 39 10 9 24 -1 29
-25 14 -15 -9 -23 -10 -32 -1 -9 9 -6 25 12 67 12 31 27 56 33 56 18 0 37 -16
34 -27 -2 -6 2 -13 7 -14 6 -2 11 6 13 17 2 17 -5 24 -29 33 -18 6 -36 11 -41
11 -5 0 -22 -30 -39 -67z"/>
<path d="M1497 1558 c-91 -124 -108 -151 -100 -159 6 -6 24 12 48 46 44 64 48
67 69 59 23 -9 21 -14 -24 -74 -41 -55 -47 -70 -31 -70 15 0 92 112 89 129 -2
9 -13 20 -25 26 -21 11 -21 11 -2 35 21 28 24 40 10 40 -6 0 -21 -15 -34 -32z"/>
<path d="M392 1417 c-12 -13 -22 -28 -22 -34 0 -12 95 -103 108 -103 16 0 62
41 62 54 0 17 -95 106 -113 106 -7 0 -23 -10 -35 -23z m83 -40 c46 -41 46 -43
28 -59 -18 -17 -21 -16 -68 26 -44 38 -48 45 -36 60 19 23 23 21 76 -27z"/>
<path d="M1570 1369 l-55 -50 28 -24 c15 -13 27 -27 27 -30 0 -13 19 0 73 46
l57 51 -27 29 c-16 16 -32 29 -38 29 -5 -1 -35 -23 -65 -51z m91 15 c11 -13 6
-21 -32 -54 -47 -42 -66 -48 -75 -26 -5 12 71 95 87 96 4 0 12 -7 20 -16z"/>
<path d="M235 1340 c-5 -9 45 -44 146 -103 49 -29 59 -32 59 -18 0 14 -199
131 -205 121z"/>
<path d="M1693 1242 c-67 -33 -89 -52 -63 -52 6 0 38 14 71 30 33 17 64 28 69
25 24 -15 5 -37 -57 -68 -37 -19 -61 -37 -55 -41 6 -4 39 7 72 24 33 17 65 28
70 25 24 -15 5 -37 -57 -68 -37 -19 -61 -37 -55 -41 16 -9 152 61 152 79 0 7
-8 20 -17 27 -10 7 -18 18 -18 23 0 14 -29 75 -35 74 -3 0 -38 -17 -77 -37z"/>
<path d="M177 1227 c-3 -9 1 -21 9 -28 20 -17 25 -8 10 20 -10 19 -14 20 -19
8z"/>
<path d="M762 1218 c-27 -27 -7 -48 44 -48 13 0 24 -3 25 -7 0 -5 2 -23 5 -42
3 -24 -3 -46 -21 -77 -23 -40 -28 -43 -51 -34 -77 30 -180 -14 -221 -95 -20
-38 -20 -122 0 -160 31 -61 103 -105 169 -105 69 1 159 65 174 125 l6 23 23
-24 c30 -30 49 -30 76 -3 16 16 19 28 15 53 -6 29 0 38 88 125 76 76 94 90
100 75 5 -12 -3 -25 -27 -45 -80 -66 -91 -194 -24 -268 50 -54 144 -75 210
-47 44 18 94 77 107 127 33 123 -78 247 -204 226 -33 -5 -33 -5 -65 71 -17 43
-31 80 -31 85 0 4 27 7 60 7 57 0 60 -1 60 -25 0 -22 -4 -25 -40 -25 -29 0
-40 -4 -40 -15 0 -23 66 -19 90 5 11 11 20 27 20 35 0 8 -9 24 -20 35 -16 16
-33 20 -88 20 -38 0 -71 -3 -75 -6 -3 -3 3 -26 13 -50 l19 -44 -147 0 -147 0
-13 30 c-17 38 -9 50 34 50 23 0 33 4 28 11 -3 6 -16 8 -28 5 -21 -5 -56 2
-96 18 -9 4 -21 1 -28 -6z m408 -139 c0 -6 -41 -56 -91 -110 -85 -93 -119
-119 -105 -84 3 8 1 15 -4 15 -6 0 -10 -7 -10 -15 0 -8 -6 -15 -13 -15 -8 0
-24 36 -41 93 -15 50 -29 100 -32 110 -5 16 7 17 145 17 105 0 151 -3 151 -11z
m-260 -221 c0 -33 -17 -18 -24 20 -3 22 -20 54 -40 78 l-34 40 21 33 20 33 29
-93 c15 -52 28 -102 28 -111z m-143 119 c6 -7 -55 -107 -66 -107 -4 0 -13 6
-21 13 -12 10 -12 9 -2 -4 6 -9 9 -19 5 -23 -12 -12 -10 -46 3 -46 8 0 11 -7
8 -17 -5 -17 -5 -17 5 -1 7 9 20 15 31 13 11 -2 18 0 15 5 -3 5 15 8 39 7 24
-1 42 -6 39 -11 -3 -4 4 -5 15 -2 17 6 20 3 17 -14 -6 -32 -16 -42 -34 -35
-13 5 -13 4 -4 -6 14 -15 0 -39 -23 -39 -8 0 -14 -4 -14 -10 0 -13 -64 -23
-104 -16 -42 8 -102 58 -91 76 5 8 4 11 -3 6 -18 -11 -35 70 -23 105 16 47 52
91 68 85 8 -3 11 -1 8 4 -10 16 36 30 83 26 24 -2 46 -6 49 -9z m604 -17 c32
-24 34 -30 17 -50 -11 -12 -10 -12 4 -1 14 10 18 9 28 -9 6 -12 9 -24 6 -27
-3 -4 -1 -12 5 -19 17 -21 -9 -95 -46 -130 -37 -34 -84 -48 -136 -39 -43 8
-92 43 -85 62 3 8 2 11 -4 8 -27 -16 -43 119 -17 147 6 8 17 23 24 33 6 11 16
19 22 18 6 -2 11 2 11 7 0 35 37 -19 44 -63 1 -9 5 -19 8 -22 3 -3 2 -21 -2
-38 -7 -31 -5 -33 19 -31 14 1 27 3 29 4 1 1 7 3 12 4 6 0 10 5 9 11 0 5 8 13
18 17 15 7 14 8 -4 4 -16 -3 -23 1 -23 11 0 8 -4 11 -10 8 -5 -3 -15 7 -21 22
-6 15 -14 35 -18 43 -4 8 -5 25 -3 38 3 21 7 23 43 18 22 -3 54 -15 70 -26z
m-526 -50 c19 -37 20 -80 1 -80 -8 0 -18 5 -21 11 -4 6 -22 8 -45 4 -46 -8
-56 5 -30 38 11 14 20 28 20 32 0 5 8 14 18 22 9 8 11 11 3 7 -9 -5 -12 -3 -7
4 11 18 43 -3 61 -38z m-130 -70 c3 -5 1 -10 -4 -10 -6 0 -11 5 -11 10 0 6 2
10 4 10 3 0 8 -4 11 -10z m265 -29 c0 -10 -7 -25 -17 -32 -15 -13 -16 -11 -9
14 4 16 2 27 -4 27 -5 0 -10 -10 -10 -21 0 -18 -2 -19 -15 -9 -19 16 -19 25 1
44 19 20 54 5 54 -23z m310 29 c0 -5 -5 -10 -11 -10 -5 0 -7 5 -4 10 3 6 8 10
11 10 2 0 4 -4 4 -10z"/>
<path d="M600 916 c0 -2 8 -10 18 -17 15 -13 16 -12 3 4 -13 16 -21 21 -21 13z"/>
<path d="M640 886 c0 -2 8 -10 18 -17 15 -13 16 -12 3 4 -13 16 -21 21 -21 13z"/>
<path d="M634 794 c-18 -14 -18 -15 4 -4 12 6 22 13 22 15 0 8 -5 6 -26 -11z"/>
<path d="M1148 853 c6 -2 18 -2 25 0 6 3 1 5 -13 5 -14 0 -19 -2 -12 -5z"/>
<path d="M1378 853 c7 -3 16 -2 19 1 4 3 -2 6 -13 5 -11 0 -14 -3 -6 -6z"/>
<path d="M1208 843 c6 -2 18 -2 25 0 6 3 1 5 -13 5 -14 0 -19 -2 -12 -5z"/>
<path d="M224 1179 c-13 -26 -14 -34 -2 -44 21 -19 126 -58 142 -52 16 6 31
61 21 77 -13 21 -24 9 -19 -19 7 -35 -6 -45 -40 -30 -24 11 -25 13 -11 45 13
32 13 33 -17 43 -47 16 -56 14 -74 -20z m67 1 c12 0 11 -21 0 -39 -8 -12 -14
-13 -36 -3 -22 10 -24 15 -15 33 7 12 17 18 27 15 8 -3 19 -6 24 -6z"/>
<path d="M126 1055 c-2 -8 28 -22 86 -41 49 -15 92 -32 95 -38 4 -5 -34 -6
-96 -2 -88 7 -101 6 -101 -8 0 -14 17 -16 116 -16 112 0 115 1 112 21 -2 17
-23 29 -105 59 -72 26 -103 34 -107 25z"/>
<path d="M1785 1029 c-44 -10 -90 -21 -102 -24 -38 -9 -27 -28 11 -21 29 6 34
4 30 -11 -9 -39 9 -47 81 -32 87 17 99 26 82 59 -8 14 -12 31 -9 38 4 14 7 15
-93 -9z m83 -31 c-2 -17 -14 -24 -58 -34 -72 -17 -70 -17 -70 9 0 20 7 25 48
34 76 17 84 16 80 -9z"/>
<path d="M925 730 c-3 -5 1 -10 10 -10 9 0 13 5 10 10 -3 6 -8 10 -10 10 -2 0
-7 -4 -10 -10z"/>
<path d="M1011 647 c9 -9 28 -19 43 -23 14 -3 26 -12 26 -19 0 -14 -56 -29
-72 -19 -6 4 -2 -5 7 -20 20 -31 23 -32 21 -8 -1 12 7 18 27 20 41 5 36 38
-10 59 -21 9 -42 19 -48 22 -5 2 -2 -3 6 -12z"/>
<path d="M970 621 c-12 -24 -13 -84 -1 -77 5 4 7 19 5 35 -3 18 1 35 11 45 9
9 12 16 6 16 -6 0 -15 -9 -21 -19z"/>
<path d="M632 516 c-40 -44 -56 -70 -29 -47 8 6 18 7 22 3 5 -4 5 -2 1 5 -6
12 38 72 47 63 3 -3 -3 -23 -14 -44 -10 -22 -19 -49 -19 -60 1 -12 12 8 26 43
13 36 21 68 16 73 -5 5 -27 -11 -50 -36z"/>
<path d="M1410 530 c-15 -9 -8 -29 25 -74 26 -34 25 -11 0 26 -18 26 -21 39
-13 44 11 7 37 -19 58 -55 5 -9 11 -13 14 -10 8 8 -43 79 -57 79 -7 0 -19 -4
-27 -10z"/>
<path d="M1346 492 c6 -4 21 -25 32 -47 25 -48 29 -31 5 20 -9 19 -24 35 -32
35 -10 0 -12 -3 -5 -8z"/>
<path d="M713 474 c-3 -8 -2 -19 3 -24 5 -5 10 1 10 16 2 27 -4 31 -13 8z"/>
<path d="M750 483 c5 -2 8 -9 4 -14 -3 -5 0 -9 6 -9 15 0 7 23 -8 26 -7 1 -8
0 -2 -3z"/>
<path d="M1315 481 c-6 -11 25 -81 37 -81 5 0 0 17 -11 39 -11 21 -17 41 -14
45 4 3 4 6 0 6 -3 0 -8 -4 -12 -9z"/>
<path d="M794 448 c-4 -15 -1 -25 11 -34 11 -8 16 -21 12 -34 -3 -11 -2 -18 3
-15 4 3 10 14 13 26 4 15 0 23 -14 26 -22 6 -22 8 -9 34 7 12 7 19 1 19 -5 0
-13 -10 -17 -22z"/>
<path d="M1213 443 c10 -49 26 -83 39 -83 10 0 10 2 0 9 -8 4 -15 27 -15 49
-1 25 -8 44 -16 47 -10 4 -12 -1 -8 -22z"/>
<path d="M1277 424 c8 -25 17 -43 20 -41 7 7 -19 87 -28 87 -4 0 -1 -20 8 -46z"/>
<path d="M835 450 c3 -5 8 -10 11 -10 2 0 4 5 4 10 0 6 -5 10 -11 10 -5 0 -7
-4 -4 -10z"/>
<path d="M887 443 c-10 -17 -18 -93 -10 -93 4 0 9 17 11 38 1 20 10 43 19 50
15 11 15 12 1 12 -9 0 -19 -3 -21 -7z"/>
<path d="M1164 430 c3 -14 6 -37 6 -52 0 -16 4 -28 9 -28 12 0 2 82 -12 95 -6
7 -8 2 -3 -15z"/>
<path d="M735 420 c-8 -25 -21 -26 -34 -2 -9 15 -10 15 -11 1 0 -25 32 -33 47
-13 13 18 17 34 9 34 -3 0 -8 -9 -11 -20z"/>
<path d="M924 392 c-6 -28 -7 -49 -3 -46 10 6 22 69 17 84 -2 7 -8 -11 -14
-38z"/>
<path d="M987 434 c-9 -10 -9 -94 1 -94 4 0 6 20 4 45 -4 47 9 59 37 33 11
-11 13 -10 9 2 -5 16 -39 25 -51 14z"/>
<path d="M1071 398 c0 -26 4 -50 9 -53 11 -7 11 25 0 70 -7 27 -8 25 -9 -17z"/>
<path d="M1120 416 c0 -35 17 -76 32 -76 10 0 10 2 0 8 -7 5 -13 27 -15 50 -2
44 -17 59 -17 18z"/>
<path d="M780 380 c0 -5 5 -10 11 -10 5 0 7 5 4 10 -3 6 -8 10 -11 10 -2 0 -4
-4 -4 -10z"/>
</g>
</svg>
